<?xml version="1.0" encoding="UTF-8"?>
<svg xmlns="http://www.w3.org/2000/svg" xmlns:xlink="http://www.w3.org/1999/xlink" width="50px" height="40px" viewBox="0 0 40 40" version="1.1">
<g id="surface1">
<path style="fill-rule:nonzero;fill:rgb(100%,100%,100%);fill-opacity:1;stroke-width:1;stroke-linecap:butt;stroke-linejoin:miter;stroke:rgb(85.098039%,85.098039%,85.098039%);stroke-opacity:1;stroke-miterlimit:4;" d="M 6.001953 0.498047 L 63.998047 0.498047 C 67.040039 0.498047 69.500977 2.96582 69.500977 6.000977 L 69.500977 41.999023 C 69.500977 45.03418 67.040039 47.501953 63.998047 47.501953 L 6.001953 47.501953 C 2.959961 47.501953 0.499023 45.03418 0.499023 41.999023 L 0.499023 6.000977 C 0.499023 2.96582 2.959961 0.498047 6.001953 0.498047 Z M 6.001953 0.498047 " transform="matrix(0.571429,0,0,0.571429,0,6.285714)"/>
<path style=" stroke:none;fill-rule:evenodd;fill:rgb(92.941176%,0%,2.352941%);fill-opacity:1;" d="M 20.226562 26.148438 C 18.863281 27.324219 17.097656 28.035156 15.167969 28.035156 C 10.859375 28.035156 7.367188 24.503906 7.367188 20.144531 C 7.367188 15.789062 10.859375 12.257812 15.167969 12.257812 C 17.097656 12.257812 18.863281 12.964844 20.226562 14.140625 C 21.585938 12.964844 23.355469 12.257812 25.285156 12.257812 C 29.589844 12.257812 33.082031 15.789062 33.082031 20.144531 C 33.082031 24.503906 29.589844 28.035156 25.285156 28.035156 C 23.355469 28.035156 21.585938 27.324219 20.226562 26.148438 Z M 20.226562 26.148438 "/>
<path style=" stroke:none;fill-rule:evenodd;fill:rgb(97.647059%,62.745098%,0%);fill-opacity:1;" d="M 20.226562 26.148438 C 21.902344 24.703125 22.964844 22.550781 22.964844 20.144531 C 22.964844 17.742188 21.902344 15.585938 20.226562 14.140625 C 21.585938 12.964844 23.355469 12.257812 25.285156 12.257812 C 29.589844 12.257812 33.082031 15.789062 33.082031 20.144531 C 33.082031 24.503906 29.589844 28.035156 25.285156 28.035156 C 23.355469 28.035156 21.585938 27.324219 20.226562 26.148438 Z M 20.226562 26.148438 "/>
<path style=" stroke:none;fill-rule:evenodd;fill:rgb(100%,36.862745%,0%);fill-opacity:1;" d="M 20.226562 14.140625 C 21.902344 15.585938 22.964844 17.742188 22.964844 20.144531 C 22.964844 22.550781 21.902344 24.703125 20.226562 26.148438 C 18.546875 24.703125 17.484375 22.550781 17.484375 20.144531 C 17.484375 17.742188 18.546875 15.585938 20.226562 14.140625 Z M 20.226562 14.140625 "/>
</g>
</svg>
