<?xml version="1.0" encoding="UTF-8"?>
<svg xmlns="http://www.w3.org/2000/svg" xmlns:xlink="http://www.w3.org/1999/xlink" width="50px" height="50px" viewBox="0 0 50 50" version="1.1">
<g id="surface1">
<path style=" stroke:none;fill-rule:nonzero;fill:white;fill-opacity:1;" d="M 47.304688 11.078125 L 2.695312 11.078125 C 1.207031 11.078125 0 11.980469 0 13.097656 C 0 13.097656 0 13.550781 0 14.109375 C 0 14.667969 1.207031 15.121094 2.695312 15.121094 L 47.304688 15.121094 C 48.792969 15.121094 50 14.667969 50 14.109375 C 50 13.8125 50 13.464844 50 13.097656 C 50 11.980469 48.792969 11.078125 47.304688 11.078125 Z M 47.304688 11.078125 "/>
<path style=" stroke:none;fill-rule:nonzero;fill:white;fill-opacity:1;" d="M 0 23.800781 L 0 36.226562 C 0 37.714844 1.207031 38.921875 2.695312 38.921875 L 47.304688 38.921875 C 48.792969 38.921875 50 37.714844 50 36.226562 L 50 23.800781 C 50 22.3125 48.792969 21.109375 47.304688 21.109375 L 2.695312 21.109375 C 1.207031 21.109375 0 22.3125 0 23.800781 Z M 15.007812 28.742188 L 3.332031 28.742188 C 2.585938 28.742188 1.984375 28.140625 1.984375 27.394531 C 1.984375 26.652344 2.585938 26.046875 3.332031 26.046875 L 15.007812 26.046875 C 15.75 26.046875 16.355469 26.652344 16.355469 27.394531 C 16.355469 28.140625 15.75 28.742188 15.007812 28.742188 Z M 30.875 28.742188 L 19.199219 28.742188 C 18.453125 28.742188 17.851562 28.140625 17.851562 27.394531 C 17.851562 26.652344 18.453125 26.046875 19.199219 26.046875 L 30.875 26.046875 C 31.621094 26.046875 32.222656 26.652344 32.222656 27.394531 C 32.222656 28.140625 31.621094 28.742188 30.875 28.742188 Z M 43.898438 36.078125 L 38.359375 36.078125 C 36.871094 36.078125 35.664062 35.039062 35.664062 33.757812 C 35.664062 32.476562 36.871094 31.4375 38.359375 31.4375 L 43.898438 31.4375 C 45.386719 31.4375 46.59375 32.476562 46.59375 33.757812 C 46.59375 35.039062 45.386719 36.078125 43.898438 36.078125 Z M 46.742188 28.742188 L 35.066406 28.742188 C 34.320312 28.742188 33.71875 28.140625 33.71875 27.394531 C 33.71875 26.652344 34.320312 26.046875 35.066406 26.046875 L 46.742188 26.046875 C 47.488281 26.046875 48.089844 26.652344 48.089844 27.394531 C 48.089844 28.140625 47.488281 28.742188 46.742188 28.742188 Z M 46.742188 28.742188 "/>
</g>
</svg>
