<?xml version="1.0" encoding="UTF-8"?>
<svg xmlns="http://www.w3.org/2000/svg" xmlns:xlink="http://www.w3.org/1999/xlink" width="50px" height="50px" viewBox="0 0 50 50" version="1.1">
<g id="surface1">
<path style=" stroke:none;fill-rule:nonzero;fill:rgb(5.490196%,27.058824%,58.431373%);fill-opacity:1;" d="M 18.792969 31.328125 L 20.933594 18.78125 L 24.355469 18.78125 L 22.214844 31.328125 Z M 34.570312 19.050781 C 33.894531 18.796875 32.832031 18.523438 31.503906 18.523438 C 28.125 18.523438 25.746094 20.226562 25.726562 22.664062 C 25.707031 24.46875 27.425781 25.472656 28.722656 26.074219 C 30.054688 26.6875 30.5 27.082031 30.496094 27.628906 C 30.484375 28.472656 29.429688 28.855469 28.449219 28.855469 C 27.078125 28.855469 26.351562 28.664062 25.230469 28.199219 L 24.789062 28 L 24.308594 30.808594 C 25.105469 31.15625 26.582031 31.460938 28.117188 31.476562 C 31.714844 31.476562 34.046875 29.792969 34.074219 27.1875 C 34.085938 25.761719 33.175781 24.675781 31.203125 23.78125 C 30.007812 23.199219 29.273438 22.8125 29.28125 22.222656 C 29.28125 21.703125 29.902344 21.144531 31.242188 21.144531 C 32.359375 21.128906 33.167969 21.371094 33.800781 21.625 L 34.109375 21.769531 L 34.570312 19.050781 M 43.375 18.78125 L 40.730469 18.78125 C 39.910156 18.78125 39.296875 19.003906 38.9375 19.820312 L 33.859375 31.320312 L 37.449219 31.320312 C 37.449219 31.320312 38.039062 29.773438 38.171875 29.433594 C 38.5625 29.433594 42.050781 29.441406 42.550781 29.441406 C 42.652344 29.878906 42.96875 31.320312 42.96875 31.320312 L 46.140625 31.320312 Z M 39.179688 26.882812 C 39.460938 26.160156 40.542969 23.375 40.542969 23.375 C 40.523438 23.410156 40.824219 22.648438 40.996094 22.175781 L 41.226562 23.257812 C 41.226562 23.257812 41.882812 26.253906 42.019531 26.882812 Z M 15.890625 18.78125 L 12.542969 27.335938 L 12.1875 25.597656 C 11.5625 23.59375 9.621094 21.421875 7.449219 20.335938 L 10.511719 31.308594 L 14.128906 31.304688 L 19.515625 18.78125 L 15.890625 18.78125 "/>
<path style=" stroke:none;fill-rule:nonzero;fill:rgb(94.901961%,68.235294%,7.843137%);fill-opacity:1;" d="M 9.417969 18.78125 L 3.902344 18.78125 L 3.859375 19.039062 C 8.148438 20.078125 10.988281 22.589844 12.167969 25.605469 L 10.96875 19.839844 C 10.761719 19.042969 10.160156 18.808594 9.417969 18.78125 "/>
</g>
</svg>
