<?xml version="1.0" encoding="UTF-8"?>
<svg xmlns="http://www.w3.org/2000/svg" xmlns:xlink="http://www.w3.org/1999/xlink" width="50px" height="50px" viewBox="0 0 50 50" version="1.1">
<g id="surface1">
<path style=" stroke:none;fill-rule:nonzero;fill:rgb(95.686275%,69.803922%,69.019608%);fill-opacity:1;" d="M 1.425781 14.121094 L 40.53125 14.121094 L 40.53125 20.105469 L 1.425781 20.105469 Z M 1.425781 14.121094 "/>
<path style=" stroke:none;fill-rule:nonzero;fill:rgb(70.196078%,25.098039%,29.019608%);fill-opacity:1;" d="M 48.574219 6.824219 L 1.425781 6.824219 C 0.636719 6.824219 0 7.464844 0 8.25 C 0 9.035156 0.636719 9.675781 1.425781 9.675781 L 47.152344 9.675781 L 47.152344 40.324219 L 2.847656 40.324219 L 2.847656 21.53125 L 40.53125 21.53125 C 41.316406 21.53125 41.953125 20.890625 41.953125 20.105469 L 41.953125 14.121094 C 41.953125 13.332031 41.316406 12.695312 40.53125 12.695312 L 1.425781 12.695312 C 0.636719 12.695312 0 13.332031 0 14.121094 L 0 41.75 C 0 42.535156 0.636719 43.175781 1.425781 43.175781 L 48.574219 43.175781 C 49.363281 43.175781 50 42.535156 50 41.75 L 50 8.25 C 50 7.464844 49.363281 6.824219 48.574219 6.824219 Z M 2.847656 15.542969 L 39.105469 15.542969 L 39.105469 18.679688 L 2.847656 18.679688 Z M 2.847656 15.542969 "/>
<path style=" stroke:none;fill-rule:nonzero;fill:rgb(70.196078%,25.098039%,29.019608%);fill-opacity:1;" d="M 14.261719 25.769531 C 14.078125 25.160156 13.382812 24.765625 12.488281 24.765625 C 11.59375 24.765625 10.898438 25.160156 10.710938 25.769531 L 7.972656 35.148438 L 7.96875 35.160156 C 7.953125 35.238281 7.933594 35.316406 7.933594 35.394531 C 7.933594 36.183594 8.957031 36.664062 9.691406 36.664062 C 10.425781 36.664062 10.648438 36.253906 10.71875 36.007812 L 11.164062 34.296875 L 13.828125 34.296875 L 14.273438 36.007812 C 14.339844 36.253906 14.5625 36.664062 15.300781 36.664062 C 16.03125 36.664062 17.058594 36.183594 17.058594 35.398438 C 17.058594 35.316406 17.039062 35.242188 17.019531 35.160156 Z M 13.195312 31.882812 L 11.78125 31.882812 L 12.488281 29.179688 Z M 13.195312 31.882812 "/>
<path style=" stroke:none;fill-rule:nonzero;fill:rgb(70.196078%,25.098039%,29.019608%);fill-opacity:1;" d="M 23.460938 28.140625 C 22.746094 28.140625 22.414062 28.292969 21.949219 29.136719 L 21.128906 30.640625 L 20.304688 29.136719 C 19.84375 28.292969 19.507812 28.140625 18.792969 28.140625 C 18.285156 28.140625 17.695312 28.4375 17.695312 29.273438 L 17.695312 35.859375 C 17.695312 36.332031 18.148438 36.664062 18.792969 36.664062 C 19.441406 36.664062 19.890625 36.332031 19.890625 35.859375 L 19.890625 32.828125 L 20.339844 33.6875 C 20.496094 34 20.761719 34.164062 21.105469 34.164062 C 21.449219 34.164062 21.730469 34 21.898438 33.699219 L 22.363281 32.867188 L 22.363281 35.855469 C 22.363281 36.332031 22.816406 36.664062 23.460938 36.664062 C 24.109375 36.664062 24.558594 36.332031 24.558594 35.855469 L 24.558594 29.273438 C 24.558594 28.585938 24.128906 28.140625 23.460938 28.140625 Z M 23.460938 28.140625 "/>
<path style=" stroke:none;fill-rule:nonzero;fill:rgb(70.196078%,25.098039%,29.019608%);fill-opacity:1;" d="M 34.230469 27.519531 C 34.804688 27.519531 35.207031 26.964844 35.207031 26.171875 C 35.207031 25.398438 34.804688 24.859375 34.230469 24.859375 L 28.992188 24.859375 C 28.351562 24.859375 27.703125 25.210938 27.703125 25.882812 L 27.703125 35.640625 C 27.703125 36.3125 28.351562 36.664062 28.992188 36.664062 L 34.230469 36.664062 C 34.804688 36.664062 35.207031 36.125 35.207031 35.351562 C 35.207031 34.558594 34.804688 34.003906 34.230469 34.003906 L 30.570312 34.003906 L 30.570312 31.960938 L 32.496094 31.960938 C 33.136719 31.960938 33.472656 31.363281 33.472656 30.769531 C 33.472656 30.0625 33.058594 29.546875 32.496094 29.546875 L 30.570312 29.546875 L 30.570312 27.519531 Z M 34.230469 27.519531 "/>
<path style=" stroke:none;fill-rule:nonzero;fill:rgb(70.196078%,25.098039%,29.019608%);fill-opacity:1;" d="M 41.929688 35.152344 L 40.21875 32.394531 L 41.859375 29.652344 C 41.957031 29.492188 42.003906 29.332031 42.003906 29.167969 C 42.003906 28.542969 41.296875 28.078125 40.667969 28.078125 C 40.328125 28.078125 40.078125 28.222656 39.925781 28.507812 L 38.789062 30.574219 L 37.65625 28.511719 C 37.503906 28.222656 37.253906 28.074219 36.914062 28.074219 C 36.28125 28.074219 35.578125 28.542969 35.578125 29.164062 C 35.578125 29.332031 35.625 29.492188 35.722656 29.648438 L 37.363281 32.394531 L 35.644531 35.160156 C 35.558594 35.316406 35.515625 35.460938 35.515625 35.605469 C 35.515625 36.28125 36.339844 36.730469 36.882812 36.730469 C 37.164062 36.730469 37.390625 36.617188 37.515625 36.410156 L 38.789062 34.152344 L 40.058594 36.402344 C 40.167969 36.605469 40.40625 36.730469 40.699219 36.730469 C 41.242188 36.730469 42.066406 36.28125 42.066406 35.605469 C 42.066406 35.460938 42.023438 35.316406 41.929688 35.152344 Z M 41.929688 35.152344 "/>
</g>
</svg>
